<svg xmlns="http://www.w3.org/2000/svg" xmlns:xlink="http://www.w3.org/1999/xlink" contentStyleType="text/css" data-diagram-type="DESCRIPTION" height="1403px" preserveAspectRatio="none" style="width:1148px;height:1403px;background:#FFFFFF;" version="1.1" viewBox="0 0 1148 1403" width="1148px" zoomAndPan="magnify"><title>MedBlockDFL System - Use Case Diagram</title><defs/><g><g class="title" data-source-line="1"><text fill="#000000" font-family="sans-serif" font-size="14" font-weight="bold" lengthAdjust="spacing" textLength="328.3232" x="403.1289" y="22.9951">MedBlockDFL System - Use Case Diagram</text></g><!--cluster MedBlockDFL System--><g class="cluster" data-entity="MedBlockDFL System" data-source-line="26" data-uid="ent0005" id="cluster_MedBlockDFL System"><rect fill="#FAFAFA" height="1207.63" rx="2.5" ry="2.5" style="stroke:#64748B;stroke-width:1;" width="643" x="7" y="189.4069"/><text fill="#000000" font-family="sans-serif" font-size="11" font-weight="bold" lengthAdjust="spacing" textLength="133.1333" x="261.9333" y="201.6173">MedBlockDFL System</text></g><!--cluster Local Training--><g class="cluster" data-entity="Local Training" data-source-line="28" data-uid="ent0006" id="cluster_Local Training"><path d="M506.5,228.6269 L595.0381,228.6269 A3.75,3.75 0 0 1 597.5381,231.1269 L604.5381,247.4316 L623.5,247.4316 A2.5,2.5 0 0 1 626,249.9316 L626,427.8469 A2.5,2.5 0 0 1 623.5,430.3469 L506.5,430.3469 A2.5,2.5 0 0 1 504,427.8469 L504,231.1269 A2.5,2.5 0 0 1 506.5,228.6269" fill="#F8FAFC" style="stroke:#64748B;stroke-width:1.5;"/><line style="stroke:#64748B;stroke-width:1.5;" x1="504" x2="604.5381" y1="247.4316" y2="247.4316"/><text fill="#000000" font-family="sans-serif" font-size="11" font-weight="bold" lengthAdjust="spacing" textLength="87.5381" x="508" y="240.8373">Local Training</text></g><!--cluster DAVS Selection--><g class="cluster" data-entity="DAVS Selection" data-source-line="33" data-uid="ent0009" id="cluster_DAVS Selection"><path d="M459.5,476.3469 L555.9604,476.3469 A3.75,3.75 0 0 1 558.4604,478.8469 L565.4604,495.1516 L620.5,495.1516 A2.5,2.5 0 0 1 623,497.6516 L623,777.8869 A2.5,2.5 0 0 1 620.5,780.3869 L459.5,780.3869 A2.5,2.5 0 0 1 457,777.8869 L457,478.8469 A2.5,2.5 0 0 1 459.5,476.3469" fill="#EFF6FF" style="stroke:#64748B;stroke-width:1.5;"/><line style="stroke:#64748B;stroke-width:1.5;" x1="457" x2="565.4604" y1="495.1516" y2="495.1516"/><text fill="#000000" font-family="sans-serif" font-size="11" font-weight="bold" lengthAdjust="spacing" textLength="95.4604" x="461" y="488.5573">DAVS Selection</text></g><!--cluster PBFT Consensus--><g class="cluster" data-entity="PBFT Consensus" data-source-line="39" data-uid="ent0013" id="cluster_PBFT Consensus"><path d="M312.5,826.6069 L415.019,826.6069 A3.75,3.75 0 0 1 417.519,829.1069 L424.519,845.4116 L455.5,845.4116 A2.5,2.5 0 0 1 458,847.9116 L458,1017.8769 A2.5,2.5 0 0 1 455.5,1020.3769 L312.5,1020.3769 A2.5,2.5 0 0 1 310,1017.8769 L310,829.1069 A2.5,2.5 0 0 1 312.5,826.6069" fill="#FEF3C7" style="stroke:#64748B;stroke-width:1.5;"/><line style="stroke:#64748B;stroke-width:1.5;" x1="310" x2="424.519" y1="845.4116" y2="845.4116"/><text fill="#000000" font-family="sans-serif" font-size="11" font-weight="bold" lengthAdjust="spacing" textLength="101.519" x="314" y="838.8173">PBFT Consensus</text></g><!--cluster Blockchain & Aggregation--><g class="cluster" data-entity="Blockchain . Aggregation" data-source-line="44" data-uid="ent0016" id="cluster_Blockchain . Aggregation"><path d="M451.5,1066.3769 L613.5361,1066.3769 A3.75,3.75 0 0 1 616.0361,1068.8769 L623.0361,1085.1816 L623.5,1085.1816 A2.5,2.5 0 0 1 626,1087.6816 L626,1370.5369 A2.5,2.5 0 0 1 623.5,1373.0369 L451.5,1373.0369 A2.5,2.5 0 0 1 449,1370.5369 L449,1068.8769 A2.5,2.5 0 0 1 451.5,1066.3769" fill="#F0FDF4" style="stroke:#64748B;stroke-width:1.5;"/><line style="stroke:#64748B;stroke-width:1.5;" x1="449" x2="623.0361" y1="1085.1816" y2="1085.1816"/><text fill="#000000" font-family="sans-serif" font-size="11" font-weight="bold" lengthAdjust="spacing" textLength="161.0361" x="453" y="1078.5873">Blockchain &amp; Aggregation</text></g><!--cluster Security--><g class="cluster" data-entity="Security" data-source-line="50" data-uid="ent0020" id="cluster_Security"><path d="M484.5,826.3869 L536.8584,826.3869 A3.75,3.75 0 0 1 539.3584,828.8869 L546.3584,845.1916 L623.5,845.1916 A2.5,2.5 0 0 1 626,847.6916 L626,1017.5969 A2.5,2.5 0 0 1 623.5,1020.0969 L484.5,1020.0969 A2.5,2.5 0 0 1 482,1017.5969 L482,828.8869 A2.5,2.5 0 0 1 484.5,826.3869" fill="#FEE2E2" style="stroke:#64748B;stroke-width:1.5;"/><line style="stroke:#64748B;stroke-width:1.5;" x1="482" x2="546.3584" y1="845.1916" y2="845.1916"/><text fill="#000000" font-family="sans-serif" font-size="11" font-weight="bold" lengthAdjust="spacing" textLength="51.3584" x="486" y="838.5973">Security</text></g><!--cluster Administration--><g class="cluster" data-entity="Administration" data-source-line="55" data-uid="ent0023" id="cluster_Administration"><path d="M33.5,228.4069 L126.7915,228.4069 A3.75,3.75 0 0 1 129.2915,230.9069 L136.2915,247.2116 L477.5,247.2116 A2.5,2.5 0 0 1 480,249.7116 L480,309.5369 A2.5,2.5 0 0 1 477.5,312.0369 L33.5,312.0369 A2.5,2.5 0 0 1 31,309.5369 L31,230.9069 A2.5,2.5 0 0 1 33.5,228.4069" fill="#F5F3FF" style="stroke:#64748B;stroke-width:1.5;"/><line style="stroke:#64748B;stroke-width:1.5;" x1="31" x2="136.2915" y1="247.2116" y2="247.2116"/><text fill="#000000" font-family="sans-serif" font-size="11" font-weight="bold" lengthAdjust="spacing" textLength="92.2915" x="35" y="240.6173">Administration</text></g><!--entity UC1--><g class="entity" data-entity="UC1" data-source-line="29" data-uid="ent0007" id="entity_UC1"><ellipse cx="558.0036" cy="277.7293" fill="#F0F4FF" rx="38.4836" ry="18.0924" style="stroke:#2563EB;stroke-width:0.5;"/><text fill="#000000" font-family="sans-serif" font-size="10" lengthAdjust="spacing" textLength="54.7363" x="530.6355" y="276.2638">Train Local</text><text fill="#000000" font-family="sans-serif" font-size="10" lengthAdjust="spacing" textLength="30.0244" x="542.9914" y="287.9045">Model</text></g><!--entity UC2--><g class="entity" data-entity="UC2" data-source-line="30" data-uid="ent0008" id="entity_UC2"><ellipse cx="556.999" cy="395.135" fill="#F0F4FF" rx="36.929" ry="19.2081" style="stroke:#2563EB;stroke-width:0.5;"/><text fill="#000000" font-family="sans-serif" font-size="10" lengthAdjust="spacing" textLength="45.6006" x="534.1987" y="391.2727">Compute</text><text fill="#000000" font-family="sans-serif" font-size="10" lengthAdjust="spacing" textLength="48.7354" x="532.6313" y="402.9133">Gradients</text></g><!--entity UC3--><g class="entity" data-entity="UC3" data-source-line="34" data-uid="ent0010" id="entity_UC3"><ellipse cx="549.9998" cy="525.2187" fill="#F0F4FF" rx="54.1998" ry="17.8718" style="stroke:#2563EB;stroke-width:0.5;"/><text fill="#000000" font-family="sans-serif" font-size="10" lengthAdjust="spacing" textLength="80.1514" x="509.9241" y="524.1037">Create Gradient</text><text fill="#000000" font-family="sans-serif" font-size="10" lengthAdjust="spacing" textLength="34.0479" x="532.9759" y="535.7443">Sketch</text></g><!--entity UC4--><g class="entity" data-entity="UC4" data-source-line="35" data-uid="ent0011" id="entity_UC4"><ellipse cx="540.0011" cy="635.0341" fill="#F0F4FF" rx="66.6511" ry="17.9472" style="stroke:#2563EB;stroke-width:0.5;"/><text fill="#000000" font-family="sans-serif" font-size="10" lengthAdjust="spacing" textLength="46.7041" x="516.649" y="629.2698">Calculate</text><text fill="#000000" font-family="sans-serif" font-size="10" lengthAdjust="spacing" textLength="99.1406" x="490.4308" y="640.9104">Representativeness</text></g><!--entity UC5--><g class="entity" data-entity="UC5" data-source-line="36" data-uid="ent0012" id="entity_UC5"><ellipse cx="539.9966" cy="745.6875" fill="#F0F4FF" rx="50.5266" ry="18.7006" style="stroke:#2563EB;stroke-width:0.5;"/><text fill="#000000" font-family="sans-serif" font-size="10" lengthAdjust="spacing" textLength="70.4736" x="504.7597" y="743.2922">Select Verifier</text><text fill="#000000" font-family="sans-serif" font-size="10" lengthAdjust="spacing" textLength="55.5078" x="512.2426" y="754.9329">Committee</text></g><!--entity UC6--><g class="entity" data-entity="UC6" data-source-line="40" data-uid="ent0014" id="entity_UC6"><ellipse cx="391.0003" cy="875.583" fill="#F0F4FF" rx="50.7803" ry="17.9761" style="stroke:#2563EB;stroke-width:0.5;"/><text fill="#000000" font-family="sans-serif" font-size="10" lengthAdjust="spacing" textLength="74.2773" x="353.8617" y="874.3013">Validate Model</text><text fill="#000000" font-family="sans-serif" font-size="10" lengthAdjust="spacing" textLength="36.2158" x="372.8924" y="885.9419">Update</text></g><!--entity UC7--><g class="entity" data-entity="UC7" data-source-line="41" data-uid="ent0015" id="entity_UC7"><ellipse cx="383.9982" cy="986.0779" fill="#F0F4FF" rx="58.1582" ry="18.301" style="stroke:#2563EB;stroke-width:0.5;"/><text fill="#000000" font-family="sans-serif" font-size="10" lengthAdjust="spacing" textLength="83.9258" x="342.0353" y="984.2879">Reach Byzantine</text><text fill="#000000" font-family="sans-serif" font-size="10" lengthAdjust="spacing" textLength="53.8965" x="357.05" y="995.9285">Consensus</text></g><!--entity UC8--><g class="entity" data-entity="UC8" data-source-line="45" data-uid="ent0017" id="entity_UC8"><ellipse cx="552.999" cy="1116.0989" fill="#F0F4FF" rx="38.329" ry="18.712" style="stroke:#2563EB;stroke-width:0.5;"/><text fill="#000000" font-family="sans-serif" font-size="10" lengthAdjust="spacing" textLength="52.3486" x="526.8247" y="1113.6866">Aggregate</text><text fill="#000000" font-family="sans-serif" font-size="10" lengthAdjust="spacing" textLength="41.4258" x="532.2861" y="1125.3273">Updates</text></g><!--entity UC9--><g class="entity" data-entity="UC9" data-source-line="46" data-uid="ent0018" id="entity_UC9"><ellipse cx="553.0008" cy="1228.1479" fill="#F0F4FF" rx="40.9908" ry="19.341" style="stroke:#2563EB;stroke-width:0.5;"/><text fill="#000000" font-family="sans-serif" font-size="10" lengthAdjust="spacing" textLength="52.5" x="526.7508" y="1224.4757">Commit to</text><text fill="#000000" font-family="sans-serif" font-size="10" lengthAdjust="spacing" textLength="54.126" x="525.9378" y="1236.1163">Blockchain</text></g><!--entity UC10--><g class="entity" data-entity="UC10" data-source-line="47" data-uid="ent0019" id="entity_UC10"><ellipse cx="553.0023" cy="1339.2519" fill="#F0F4FF" rx="56.5223" ry="17.775" style="stroke:#2563EB;stroke-width:0.5;"/><text fill="#000000" font-family="sans-serif" font-size="10" lengthAdjust="spacing" textLength="84.3359" x="510.8343" y="1338.2932">Distribute Global</text><text fill="#000000" font-family="sans-serif" font-size="10" lengthAdjust="spacing" textLength="30.0244" x="537.9901" y="1349.9338">Model</text></g><!--entity UC11--><g class="entity" data-entity="UC11" data-source-line="51" data-uid="ent0021" id="entity_UC11"><ellipse cx="554.0023" cy="875.5829" fill="#F0F4FF" rx="56.2723" ry="18.1961" style="stroke:#2563EB;stroke-width:0.5;"/><text fill="#000000" font-family="sans-serif" font-size="10" lengthAdjust="spacing" textLength="81.6162" x="513.1942" y="873.9554">Detect Poisoned</text><text fill="#000000" font-family="sans-serif" font-size="10" lengthAdjust="spacing" textLength="48.7354" x="529.6346" y="885.5961">Gradients</text></g><!--entity UC12--><g class="entity" data-entity="UC12" data-source-line="52" data-uid="ent0022" id="entity_UC12"><ellipse cx="552.9968" cy="986.0781" fill="#F0F4FF" rx="55.1868" ry="18.0212" style="stroke:#2563EB;stroke-width:0.5;"/><text fill="#000000" font-family="sans-serif" font-size="10" lengthAdjust="spacing" textLength="80.8838" x="512.5549" y="984.7249">Reject Malicious</text><text fill="#000000" font-family="sans-serif" font-size="10" lengthAdjust="spacing" textLength="41.4258" x="532.2839" y="996.3655">Updates</text></g><!--entity UC13--><g class="entity" data-entity="UC13" data-source-line="56" data-uid="ent0024" id="entity_UC13"><ellipse cx="109.0002" cy="277.7297" fill="#F0F4FF" rx="61.6402" ry="18.3128" style="stroke:#2563EB;stroke-width:0.5;"/><text fill="#000000" font-family="sans-serif" font-size="10" lengthAdjust="spacing" textLength="89.1553" x="64.4226" y="275.9215">Configure System</text><text fill="#000000" font-family="sans-serif" font-size="10" lengthAdjust="spacing" textLength="57.6855" x="80.1575" y="287.5622">Parameters</text></g><!--entity UC14--><g class="entity" data-entity="UC14" data-source-line="57" data-uid="ent0025" id="entity_UC14"><ellipse cx="261.0023" cy="277.7258" fill="#F0F4FF" rx="55.5523" ry="17.8989" style="stroke:#2563EB;stroke-width:0.5;"/><text fill="#000000" font-family="sans-serif" font-size="10" lengthAdjust="spacing" textLength="82.1191" x="219.9428" y="276.5673">Monitor Training</text><text fill="#000000" font-family="sans-serif" font-size="10" lengthAdjust="spacing" textLength="36.2988" x="242.8529" y="288.2079">Metrics</text></g><!--entity UC15--><g class="entity" data-entity="UC15" data-source-line="58" data-uid="ent0026" id="entity_UC15"><ellipse cx="408.0043" cy="277.7304" fill="#F0F4FF" rx="56.3643" ry="17.8735" style="stroke:#2563EB;stroke-width:0.5;"/><text fill="#000000" font-family="sans-serif" font-size="10" lengthAdjust="spacing" textLength="83.5303" x="366.2392" y="276.6127">Audit Blockchain</text><text fill="#000000" font-family="sans-serif" font-size="10" lengthAdjust="spacing" textLength="35.5762" x="390.2163" y="288.2533">History</text></g><!--entity Client--><g class="entity" data-entity="Client" data-source-line="21" data-uid="ent0002" id="entity_Client"><ellipse cx="660" cy="59.2969" fill="#87CEEB" rx="16" ry="16" style="stroke:#181818;stroke-width:0.5;"/><path d="M660,79.2969 C664,79.2969 667,79.2969 671,75.2969 C679,75.2969 687,83.2969 687,91.2969 L687,95.2969 C687,99.2969 683,103.2969 679,103.2969 L641,103.2969 C637,103.2969 633,99.2969 633,95.2969 L633,91.2969 C633,83.2969 641,75.2969 649,75.2969 C653,79.2969 656,79.2969 660,79.2969" fill="#87CEEB" style="stroke:#181818;stroke-width:0.5;"/><text fill="#000000" font-family="sans-serif" font-size="11" lengthAdjust="spacing" textLength="44.8809" x="637.5596" y="114.0073">Hospital</text><text fill="#000000" font-family="sans-serif" font-size="11" lengthAdjust="spacing" textLength="28.7085" x="637.5596" y="126.812">Node</text></g><!--entity Admin--><g class="entity" data-entity="Admin" data-source-line="22" data-uid="ent0003" id="entity_Admin"><ellipse cx="260.9996" cy="65.7069" fill="#90EE90" rx="16" ry="16" style="stroke:#181818;stroke-width:0.5;"/><path d="M260.9996,85.7069 C264.9996,85.7069 267.9996,85.7069 271.9996,81.7069 C279.9996,81.7069 287.9996,89.7069 287.9996,97.7069 L287.9996,101.7069 C287.9996,105.7069 283.9996,109.7069 279.9996,109.7069 L241.9996,109.7069 C237.9996,109.7069 233.9996,105.7069 233.9996,101.7069 L233.9996,97.7069 C233.9996,89.7069 241.9996,81.7069 249.9996,81.7069 C253.9996,85.7069 256.9996,85.7069 260.9996,85.7069" fill="#90EE90" style="stroke:#181818;stroke-width:0.5;"/><text fill="#000000" font-family="sans-serif" font-size="11" lengthAdjust="spacing" textLength="75.1792" x="223.41" y="120.4173">Administrator</text></g><!--entity Attacker--><g class="entity" data-entity="Attacker" data-source-line="23" data-uid="ent0004" id="entity_Attacker"><ellipse cx="802" cy="59.2969" fill="#FFB6C1" rx="16" ry="16" style="stroke:#181818;stroke-width:0.5;"/><path d="M802,79.2969 C806,79.2969 809,79.2969 813,75.2969 C821,75.2969 829,83.2969 829,91.2969 L829,95.2969 C829,99.2969 825,103.2969 821,103.2969 L783,103.2969 C779,103.2969 775,99.2969 775,95.2969 L775,91.2969 C775,83.2969 783,75.2969 791,75.2969 C795,79.2969 798,79.2969 802,79.2969" fill="#FFB6C1" style="stroke:#181818;stroke-width:0.5;"/><text fill="#000000" font-family="sans-serif" font-size="11" lengthAdjust="spacing" textLength="50.8804" x="776.5598" y="114.0073">Malicious</text><text fill="#000000" font-family="sans-serif" font-size="11" lengthAdjust="spacing" textLength="28.7085" x="776.5598" y="126.812">Node</text></g><g class="entity" data-entity="GMN48" data-source-line="93" data-uid="ent0049" id="entity_GMN48"><path d="M965.53,507.4169 L965.53,543.0263 L1114.4748,543.0263 L1114.4748,517.4169 L1104.4748,507.4169 L965.53,507.4169" fill="#FEFFDD" style="stroke:#181818;stroke-width:0.5;"/><path d="M1104.4748,507.4169 L1104.4748,517.4169 L1114.4748,517.4169 L1104.4748,507.4169" fill="#FEFFDD" style="stroke:#181818;stroke-width:1;"/><text fill="#000000" font-family="sans-serif" font-size="11" lengthAdjust="spacing" textLength="104.457" x="971.53" y="522.6273">Random projection</text><text fill="#000000" font-family="sans-serif" font-size="11" lengthAdjust="spacing" textLength="127.9448" x="971.53" y="535.432">reduces dimensionality</text></g><g class="entity" data-entity="GMN51" data-source-line="98" data-uid="ent0052" id="entity_GMN51"><path d="M965.89,727.8769 L965.89,741.6869 L590.9,745.6869 L965.89,749.6869 L965.89,763.4863 A0,0 0 0 0 965.89,763.4863 L1126.1195,763.4863 A0,0 0 0 0 1126.1195,763.4863 L1126.1195,737.8769 L1116.1195,727.8769 L965.89,727.8769 A0,0 0 0 0 965.89,727.8769" fill="#FEFFDD" style="stroke:#181818;stroke-width:0.5;"/><path d="M1116.1195,727.8769 L1116.1195,737.8769 L1126.1195,737.8769 L1116.1195,727.8769" fill="#FEFFDD" style="stroke:#181818;stroke-width:0.5;"/><text fill="#000000" font-family="sans-serif" font-size="11" lengthAdjust="spacing" textLength="84.439" x="971.89" y="743.0873">Top-k nodes by</text><text fill="#000000" font-family="sans-serif" font-size="11" lengthAdjust="spacing" textLength="139.2295" x="971.89" y="755.892">representativeness score</text></g><g class="entity" data-entity="GMN54" data-source-line="103" data-uid="ent0055" id="entity_GMN54"><path d="M965.53,968.2769 L965.53,1003.8863 L1126.4792,1003.8863 L1126.4792,978.2769 L1116.4792,968.2769 L965.53,968.2769" fill="#FEFFDD" style="stroke:#181818;stroke-width:0.5;"/><path d="M1116.4792,968.2769 L1116.4792,978.2769 L1126.4792,978.2769 L1116.4792,968.2769" fill="#FEFFDD" style="stroke:#181818;stroke-width:1;"/><text fill="#000000" font-family="sans-serif" font-size="11" lengthAdjust="spacing" textLength="134.8735" x="971.53" y="983.4873">Byzantine Fault Tolerant</text><text fill="#000000" font-family="sans-serif" font-size="11" lengthAdjust="spacing" textLength="139.9492" x="971.53" y="996.292">requires 2f+1 agreement</text></g><g class="entity" data-entity="GMN57" data-source-line="108" data-uid="ent0058" id="entity_GMN57"><path d="M966.42,253.5169 L966.42,301.9309 L1141.5811,301.9309 L1141.5811,263.5169 L1131.5811,253.5169 L966.42,253.5169" fill="#FEFFDD" style="stroke:#181818;stroke-width:0.5;"/><path d="M1131.5811,253.5169 L1131.5811,263.5169 L1141.5811,263.5169 L1131.5811,253.5169" fill="#FEFFDD" style="stroke:#181818;stroke-width:1;"/><text fill="#000000" font-family="sans-serif" font-size="11" lengthAdjust="spacing" textLength="154.1611" x="972.42" y="268.7273">Defended by DAVS filtering,</text><text fill="#000000" font-family="sans-serif" font-size="11" lengthAdjust="spacing" textLength="112.5674" x="972.42" y="281.532">PBFT validation, and</text><text fill="#000000" font-family="sans-serif" font-size="11" lengthAdjust="spacing" textLength="105.5366" x="972.42" y="294.3367">robust aggregation</text></g><!--link Client to UC1--><g class="link" data-entity-1="Client" data-entity-2="UC1" data-source-line="63" data-uid="lnk27" id="link_Client_UC1"><path d="M632.12,94.5769 C602.53,104.1569 557.3,123.9369 537,159.4069 C518.61,191.5569 533.4623,230.7679 545.7123,254.6579" fill="none" id="Client-to-UC1" style="stroke:#475569;stroke-width:1;"/><polygon fill="#475569" points="548.45,259.9969,547.9028,250.1632,546.1686,255.5477,540.7841,253.8135,548.45,259.9969" style="stroke:#475569;stroke-width:1;"/></g><!--link Client to UC3--><g class="link" data-entity-1="Client" data-entity-2="UC3" data-source-line="64" data-uid="lnk28" id="link_Client_UC3"><path d="M659.85,129.6769 C658.74,196.4269 652.95,329.3669 626,438.3469 C618.59,468.3069 597.0316,489.7903 577.4416,504.9803" fill="none" id="Client-to-UC3" style="stroke:#475569;stroke-width:1;"/><polygon fill="#475569" points="572.7,508.6569,582.2634,506.303,576.6513,505.593,577.3613,499.9809,572.7,508.6569" style="stroke:#475569;stroke-width:1;"/></g><!--link Client to UC6--><g class="link" data-entity-1="Client" data-entity-2="UC6" data-source-line="65" data-uid="lnk29" id="link_Client_UC6"><path d="M676.65,129.7469 C679.7,139.3569 682.42,149.6169 684,159.4069 C684.99,165.5569 684.08,167.1869 684,173.4069 C681.78,353.7569 674,398.7369 674,579.0869 C674,579.0869 674,579.0869 674,746.6869 C674,775.9669 649.05,775.0269 623,788.3869 C589.42,805.6069 577.99,802.9469 541,810.3869 C515.06,815.6069 506.91,809.4669 482,818.3869 C455.6,827.8469 433.5135,842.1285 415.8735,855.1785" fill="none" id="Client-to-UC6" style="stroke:#475569;stroke-width:1;"/><polygon fill="#475569" points="411.05,858.7469,420.6642,856.6099,415.0696,855.7732,415.9063,850.1786,411.05,858.7469" style="stroke:#475569;stroke-width:1;"/><text fill="#000000" font-family="sans-serif" font-size="11" lengthAdjust="spacing" textLength="56.8584" x="676" y="529.4273">if selected</text></g><!--link Client to UC10--><g class="link" data-entity-1="Client" data-entity-2="UC10" data-source-line="66" data-uid="lnk30" id="link_Client_UC10"><path d="M687.56,100.7169 C753.13,133.9969 913,220.8769 913,276.7269 C913,276.7269 913,276.7269 913,1229.1469 C913,1292.4169 712.7552,1321.7715 612.4752,1332.6215" fill="none" id="Client-to-UC10" style="stroke:#475569;stroke-width:1;"/><polygon fill="#475569" points="606.51,1333.2669,615.8881,1336.2755,611.481,1332.729,615.0275,1328.322,606.51,1333.2669" style="stroke:#475569;stroke-width:1;"/></g><!--link Client to UC15--><g class="link" data-entity-1="Client" data-entity-2="UC15" data-source-line="67" data-uid="lnk31" id="link_Client_UC15"><path d="M632.25,98.8469 C603.7,111.5969 558.64,133.6269 524,159.4069 C482.64,190.1969 445.9611,231.0943 425.5311,255.3943" fill="none" id="Client-to-UC15" style="stroke:#475569;stroke-width:1;"/><polygon fill="#475569" points="421.67,259.9869,430.5234,255.6721,424.8876,256.1597,424.4,250.5239,421.67,259.9869" style="stroke:#475569;stroke-width:1;"/></g><!--link Attacker to UC1--><g class="link" data-entity-1="Attacker" data-entity-2="UC1" data-source-line="69" data-uid="lnk32" id="link_Attacker_UC1"><path d="M774.01,108.8569 C723.94,147.7669 624.9974,224.6548 582.0374,258.0448" fill="none" id="Attacker-to-UC1" style="stroke:#475569;stroke-width:1;"/><polygon fill="#475569" points="577.3,261.7269,586.8607,259.3621,581.2478,258.6585,581.9513,253.0456,577.3,261.7269" style="stroke:#475569;stroke-width:1;"/><text fill="#000000" font-family="sans-serif" font-size="11" lengthAdjust="spacing" textLength="62.3154" x="702" y="170.6173">manipulate</text></g><!--link Attacker to UC11--><g class="link" data-entity-1="Attacker" data-entity-2="UC11" data-source-line="70" data-uid="lnk33" id="link_Attacker_UC11"><path d="M802,129.6569 C802,168.0869 802,226.1969 802,276.7269 C802,276.7269 802,276.7269 802,746.6869 C802,833.1569 687.3843,860.488 614.3743,869.548" fill="none" id="Attacker-to-UC11" style="stroke:#475569;stroke-width:1;stroke-dasharray:7,7;"/><polygon fill="#475569" points="608.42,870.2869,617.8441,873.1481,613.3819,869.6711,616.8589,865.209,608.42,870.2869" style="stroke:#475569;stroke-width:1;"/><text fill="#000000" font-family="sans-serif" font-size="11" lengthAdjust="spacing" textLength="56.3374" x="803" y="529.4273">&#171;triggers&#187;</text></g><!--link Admin to UC13--><g class="link" data-entity-1="Admin" data-entity-2="UC13" data-source-line="72" data-uid="lnk34" id="link_Admin_UC13"><path d="M232.05,123.2169 C199.32,164.0469 151.1426,224.1452 126.5426,254.8352" fill="none" id="Admin-to-UC13" style="stroke:#475569;stroke-width:1;"/><polygon fill="#475569" points="122.79,259.5169,131.54,254.9962,125.9172,255.6155,125.2979,249.9927,122.79,259.5169" style="stroke:#475569;stroke-width:1;"/></g><!--link Admin to UC14--><g class="link" data-entity-1="Admin" data-entity-2="UC14" data-source-line="73" data-uid="lnk35" id="link_Admin_UC14"><path d="M261,123.2169 C261,164.0469 261,222.8269 261,253.5169" fill="none" id="Admin-to-UC14" style="stroke:#475569;stroke-width:1;"/><polygon fill="#475569" points="261,259.5169,265,250.5169,261,254.5169,257,250.5169,261,259.5169" style="stroke:#475569;stroke-width:1;"/></g><!--link Admin to UC15--><g class="link" data-entity-1="Admin" data-entity-2="UC15" data-source-line="74" data-uid="lnk36" id="link_Admin_UC15"><path d="M289,123.2169 C320.82,164.2669 367.7238,224.775 391.3538,255.255" fill="none" id="Admin-to-UC15" style="stroke:#475569;stroke-width:1;"/><polygon fill="#475569" points="395.03,259.9969,392.6769,250.4332,391.9665,256.0453,386.3544,255.3348,395.03,259.9969" style="stroke:#475569;stroke-width:1;"/></g><!--link UC1 to UC2--><g class="link" data-entity-1="UC1" data-entity-2="UC2" data-source-line="77" data-uid="lnk37" id="link_UC1_UC2"><path d="M557.85,296.2569 C557.66,317.6969 557.4022,347.8271 557.2122,369.6771" fill="none" id="UC1-to-UC2" style="stroke:#475569;stroke-width:1;stroke-dasharray:7,7;"/><polygon fill="#475569" points="557.16,375.6769,561.2381,366.712,557.2035,370.6771,553.2384,366.6424,557.16,375.6769" style="stroke:#475569;stroke-width:1;"/><text fill="#000000" font-family="sans-serif" font-size="11" lengthAdjust="spacing" textLength="53.3135" x="558" y="343.1373">&#171;include&#187;</text></g><!--link UC2 to UC3--><g class="link" data-entity-1="UC2" data-entity-2="UC3" data-source-line="78" data-uid="lnk38" id="link_UC2_UC3"><path d="M555.98,414.7669 C554.62,439.5969 552.5671,477.2258 551.2571,501.2158" fill="none" id="UC2-to-UC3" style="stroke:#475569;stroke-width:1;stroke-dasharray:7,7;"/><polygon fill="#475569" points="550.93,507.2069,555.4148,498.4384,551.2026,502.2143,547.4267,498.0022,550.93,507.2069" style="stroke:#475569;stroke-width:1;"/><text fill="#000000" font-family="sans-serif" font-size="11" lengthAdjust="spacing" textLength="53.3135" x="555" y="457.5573">&#171;include&#187;</text></g><!--link UC3 to UC4--><g class="link" data-entity-1="UC3" data-entity-2="UC4" data-source-line="79" data-uid="lnk39" id="link_UC3_UC4"><path d="M548.39,543.5469 C546.53,563.6669 544.0258,590.6827 542.1558,610.7827" fill="none" id="UC3-to-UC4" style="stroke:#475569;stroke-width:1;stroke-dasharray:7,7;"/><polygon fill="#475569" points="541.6,616.7569,546.4165,608.1661,542.0632,611.7784,538.4509,607.425,541.6,616.7569" style="stroke:#475569;stroke-width:1;"/><text fill="#000000" font-family="sans-serif" font-size="11" lengthAdjust="spacing" textLength="53.3135" x="546" y="584.2973">&#171;include&#187;</text></g><!--link UC4 to UC5--><g class="link" data-entity-1="UC4" data-entity-2="UC5" data-source-line="80" data-uid="lnk40" id="link_UC4_UC5"><path d="M540,653.0169 C540,673.0669 540,700.2769 540,720.7469" fill="none" id="UC4-to-UC5" style="stroke:#475569;stroke-width:1;stroke-dasharray:7,7;"/><polygon fill="#475569" points="540,726.7469,544,717.7469,540,721.7469,536,717.7469,540,726.7469" style="stroke:#475569;stroke-width:1;"/><text fill="#000000" font-family="sans-serif" font-size="11" lengthAdjust="spacing" textLength="53.3135" x="541" y="694.1973">&#171;include&#187;</text></g><!--link UC5 to UC6--><g class="link" data-entity-1="UC5" data-entity-2="UC6" data-source-line="81" data-uid="lnk41" id="link_UC5_UC6"><path d="M520.52,763.4069 C491.65,788.1869 442.4219,830.4379 414.1019,854.7579" fill="none" id="UC5-to-UC6" style="stroke:#475569;stroke-width:1;stroke-dasharray:7,7;"/><polygon fill="#475569" points="409.55,858.6669,418.9838,855.838,413.3433,855.4094,413.7719,849.7688,409.55,858.6669" style="stroke:#475569;stroke-width:1;"/><text fill="#000000" font-family="sans-serif" font-size="11" lengthAdjust="spacing" textLength="53.3135" x="479" y="807.5973">&#171;include&#187;</text></g><!--link UC6 to UC7--><g class="link" data-entity-1="UC6" data-entity-2="UC7" data-source-line="82" data-uid="lnk42" id="link_UC6_UC7"><path d="M389.88,894.0169 C388.58,914.1369 386.8342,941.0792 385.5342,961.3392" fill="none" id="UC6-to-UC7" style="stroke:#475569;stroke-width:1;stroke-dasharray:7,7;"/><polygon fill="#475569" points="385.15,967.3269,389.7181,958.6015,385.4702,962.3371,381.7345,958.0892,385.15,967.3269" style="stroke:#475569;stroke-width:1;"/><text fill="#000000" font-family="sans-serif" font-size="11" lengthAdjust="spacing" textLength="53.3135" x="388" y="934.9873">&#171;include&#187;</text></g><!--link UC7 to UC8--><g class="link" data-entity-1="UC7" data-entity-2="UC8" data-source-line="83" data-uid="lnk43" id="link_UC7_UC8"><path d="M405.4,1003.2969 C438.27,1028.1869 495.927,1071.8643 528.037,1096.1843" fill="none" id="UC7-to-UC8" style="stroke:#475569;stroke-width:1;stroke-dasharray:7,7;"/><polygon fill="#475569" points="532.82,1099.8069,528.0606,1091.1843,528.8342,1096.788,523.2305,1097.5616,532.82,1099.8069" style="stroke:#475569;stroke-width:1;"/><text fill="#000000" font-family="sans-serif" font-size="11" lengthAdjust="spacing" textLength="53.3135" x="464" y="1047.5873">&#171;include&#187;</text></g><!--link UC8 to UC9--><g class="link" data-entity-1="UC8" data-entity-2="UC9" data-source-line="84" data-uid="lnk44" id="link_UC8_UC9"><path d="M553,1135.2669 C553,1155.5369 553,1182.1469 553,1202.5769" fill="none" id="UC8-to-UC9" style="stroke:#475569;stroke-width:1;stroke-dasharray:7,7;"/><polygon fill="#475569" points="553,1208.5769,557,1199.5769,553,1203.5769,549,1199.5769,553,1208.5769" style="stroke:#475569;stroke-width:1;"/><text fill="#000000" font-family="sans-serif" font-size="11" lengthAdjust="spacing" textLength="53.3135" x="554" y="1176.0173">&#171;include&#187;</text></g><!--link UC9 to UC10--><g class="link" data-entity-1="UC9" data-entity-2="UC10" data-source-line="85" data-uid="lnk45" id="link_UC9_UC10"><path d="M553,1247.6569 C553,1268.2069 553,1295.1069 553,1315.0969" fill="none" id="UC9-to-UC10" style="stroke:#475569;stroke-width:1;stroke-dasharray:7,7;"/><polygon fill="#475569" points="553,1321.0969,557,1312.0969,553,1316.0969,549,1312.0969,553,1321.0969" style="stroke:#475569;stroke-width:1;"/><text fill="#000000" font-family="sans-serif" font-size="11" lengthAdjust="spacing" textLength="53.3135" x="554" y="1288.6973">&#171;include&#187;</text></g><!--link UC11 to UC12--><g class="link" data-entity-1="UC11" data-entity-2="UC12" data-source-line="88" data-uid="lnk46" id="link_UC11_UC12"><path d="M553.84,894.0169 C553.65,914.2569 553.4064,941.4671 553.2164,961.6871" fill="none" id="UC11-to-UC12" style="stroke:#475569;stroke-width:1;stroke-dasharray:7,7;"/><polygon fill="#475569" points="553.16,967.6869,557.2444,958.7249,553.207,962.6871,549.2447,958.6497,553.16,967.6869" style="stroke:#475569;stroke-width:1;"/><text fill="#000000" font-family="sans-serif" font-size="11" lengthAdjust="spacing" textLength="51.772" x="554" y="934.9873">&#171;extend&#187;</text></g><!--link UC12 to UC8--><g class="link" data-entity-1="UC12" data-entity-2="UC8" data-source-line="89" data-uid="lnk47" id="link_UC12_UC8"><path d="M553,1004.3469 C553,1028.6369 553,1066.6869 553,1091.2769" fill="none" id="UC12-to-UC8" style="stroke:#475569;stroke-width:1;stroke-dasharray:7,7;"/><polygon fill="#475569" points="553,1097.2769,557,1088.2769,553,1092.2769,549,1088.2769,553,1097.2769" style="stroke:#475569;stroke-width:1;"/><text fill="#000000" font-family="sans-serif" font-size="11" lengthAdjust="spacing" textLength="51.772" x="554" y="1047.5873">&#171;extend&#187;</text></g><!--link UC3 to GMN48--><g class="link" data-entity-1="UC3" data-entity-2="GMN48" data-source-line="93" data-uid="lnk50" id="link_UC3_GMN48"><path d="M566.56,507.8869 C584.73,490.2569 615.69,464.0469 648.5,453.3469 C706.18,434.5369 863.07,437.0169 921.5,453.3469 C958.81,463.7769 996.06,489.5169 1018.57,507.1769" fill="none" id="UC3-GMN48" style="stroke:#475569;stroke-width:1;stroke-dasharray:7,7;"/></g><!--link GMN54 to UC7--><g class="link" data-entity-1="GMN54" data-entity-2="UC7" data-source-line="103" data-uid="lnk56" id="link_GMN54_UC7"><path d="M1014.75,967.7769 C990.29,954.5769 954.93,937.8669 921.5,930.7769 C738.03,891.8669 682.4,889.2469 499.5,930.7769 C466.98,938.1669 432.92,955.8769 410.28,969.2869" fill="none" id="GMN54-UC7" style="stroke:#475569;stroke-width:1;stroke-dasharray:7,7;"/></g><!--link Attacker to GMN57--><g class="link" data-entity-1="Attacker" data-entity-2="GMN57" data-source-line="108" data-uid="lnk59" id="link_Attacker_GMN57"><path d="M829.99,98.7769 C858.77,111.4769 904.17,133.4569 939,159.4069 C976.73,187.5369 1013.6,228.1369 1035.04,253.4569" fill="none" id="Attacker-GMN57" style="stroke:#475569;stroke-width:1;stroke-dasharray:7,7;"/></g><!--SRC=[TLPjR-8u4FwUNs5HwMvFjwq8xvosbI0ajzKMg0ZjgX9VJ3AatWQRivtjiQV-znkR1081a13sCo_FZ6V6raodGCOG3rCHlOs21n9kbOOrkIPF2eX7yMV4Q2Bfsd6qs10jo59eBTOaPX8YpGHtr1lZ6ueYX4PQo51lqIPz1oNMK0BLAut5E-C9MT5KbP4OLZHBTI2u3jal8AvR0ZC5aQ7ndqFmCwJHMo95ncDFf4AIgw0Uj89WXmaPWypt6-rEqn_Q_OFTklDHihn1MpJPMovhTrhTLczumQDllYUMtSFQXhyKQNpaZ4eftdCBhMwxtUaxpk_azlQM3BpvT1QQluxD7wbz5Mh3D4qNV29Yg16gY9Sou9fSzRgUZs7bWeDupJXJMb9SMZcxGwxwTT_lrmknCKrPn4IcIWO7McDWOE89XXtFBTY4B-7S7vFXz6ao6inUB2rpq9Gd65QjMYerj30mtpoFzgT8RUr1H3GbSqcH9q-CR0zblLpMV8hphLaXOXKMV8myKqlqoNEhifvORp8D2_wtfB79ZCfb6rRsumoJqU0v926akw959duGT8BW71DF0jL02jiB7hw1Zbvp5yqp2ZIDifGQGZFOI52eHJNx2HnKmQnLLTkn8SyWsOg1N70CQysq1iXrsXUZUHm6S-89ZfvKfcgsAfjUzrmqptZwiOd7vdJ1dpPcbNleLELdGADNCjp-ebmp3eRLtetLwLvaPKiZUZNd-1iP98c4XERPnZuT1Qrp_0evAAWLVdfdpnqJX5DemG- -Sl5-LNnaUeCjCtEOgLXM2gj-CP8GeamolRMPzHj-unpp4MXpVe-2AS4XhbQZwvvBxm-ZLEh9uwZTooLSQlSygUsWUQ641L-n99EGT-c2FvenX8Jbtj6PGXuBpip8A1eMymMOmMYlSwQA1rcCHt8uZWN_YXo5t1OwHHL_53FcSNO_DhFbVZBtPpZ-xgUJtVpBfzprzPrj-wDbytZP8NyHjYBAjX349whratNRSVO3Bzz2_JNbR6Fxze3Ut5ZKm5- -OEX9WXcxkqDzErbpvURnidMyR1U1Vf_ElWKFq-_aqpsFqYo6FsoOnliDteNS-cfOLsmdW9xCpW5jLj1c2MrLq5O9RLVGTWdjLD1E2UrMq6u9xLNGNWdjLz1-2NNh9t2Uh17UgfFG9v_yVpNmU9-gSgxSNRB0IbZBRgD2Qu_cXh_vBsGmcKpdWqEbSO4p0K_tLHEnoeVwZF8O7pORANxaBnj29CHP10fVEsiSWRY7RQkt3jedneHJCMIAVIusrs-8nwYut5ehfvS2KP6GS6edXLLknipO_GWcWNaUeTaK9EvOW_za-FvIfB7wqoNuFWD0VlhKNlvKGuj5VQFk25Oe1Z5I8_PINB4Knm9s-sT4xSNoStTbOBYV2IR5E1JBJ6dqj9_fUr__0m00]--></g></svg>